<svg xmlns="http://www.w3.org/2000/svg" viewBox="0 0 924 1119" width="924" height="1119"><title>Leola meestejuuksur</title><path fill="#C2A36B" d="M760.9 41.46Q763.9 41.46 763.9 44.46V48.66Q763.9 51.66 760.9 51.66H672.35L501.69 787.25H586.1Q663.87 787.25 719.19 758.87Q774.54 730.47 811.69 681.09Q848.98 631.5 872.57 568.41Q873.3 566.46 875.38 566.46H879.61Q882.61 566.46 882.61 569.46Q882.61 569.8 882.53 570.13L830.53 795.13Q830 797.46 827.61 797.46H427.7L384.29 869.35C410.2 895.46 414.58 947.82 392.31 997.84C365.8 1057.38 311.59 1091.07 271.23 1073.1C230.86 1055.13 219.63 992.3 246.14 932.77C268.41 882.74 310.25 850.96 346.99 852.75L363.76 797.46H326Q323 797.46 323 794.46V790.25Q323 787.25 326 787.25H326.61L327.32 784.17L279.07 786.81C270.13 822.26 225.58 852.6 169.24 858.52C103.33 865.45 46.24 836.33 41.74 793.49C37.24 750.65 87.02 710.3 152.93 703.37C209.27 697.45 259.16 717.87 275.27 750.68L337.34 741L497.27 51.66H412.02Q409.02 51.66 409.02 48.66V44.46Q409.02 41.46 412.02 41.46ZM353.39 888.57C319.08 873.29 275.97 895.27 257.1 937.65C238.23 980.03 250.75 1026.77 285.06 1042.04C319.36 1057.32 362.47 1035.34 381.34 992.96C400.21 950.58 387.7 903.84 353.39 888.57ZM156.28 735.2C96.41 741.49 50.03 767.07 52.68 792.34C55.34 817.61 106.02 832.99 165.89 826.69C225.76 820.4 272.14 794.82 269.49 769.55C266.83 744.29 216.15 728.91 156.28 735.2ZM445.1 754.46C445.1 736.79 430.77 722.46 413.1 722.46C395.42 722.46 381.1 736.79 381.1 754.46C381.1 772.13 395.42 786.46 413.1 786.46C430.77 786.46 445.1 772.13 445.1 754.46ZM426.1 754.46C426.1 761.64 420.28 767.46 413.1 767.46C405.92 767.46 400.1 761.64 400.1 754.46C400.1 747.28 405.92 741.46 413.1 741.46C420.28 741.46 426.1 747.28 426.1 754.46Z"/></svg>
